first trial
nRows=16
nColumns=38

# SIMM Motion File Header:
name Sujet_01_velo_80.mvnx
datacolumns 38
datarows 16
otherdata 1
range 0.0000 0.2500
endheader
time pelvis_tilt  pelvis_list  pelvis_rotation  pelvis_tx  pelvis_ty  pelvis_tz  hip_flexion_r  hip_adduction_r  hip_rotation_r  knee_angle_r  ankle_angle_r  subtalar_angle_r  mtp_angle_r  hip_flexion_l  hip_adduction_l  hip_rotation_l  knee_angle_l  ankle_angle_l  subtalar_angle_l  mtp_angle_l  lumbar_extension  lumbar_bending  lumbar_rotation  arm_flex_r  arm_add_r  arm_rot_r  elbow_flex_r  pro_sup_r  wrist_flex_r  wrist_dev_r  arm_flex_l  arm_add_l  arm_rot_l  elbow_flex_l  pro_sup_l  wrist_flex_l  wrist_dev_l
0.0000	-9.4692	4.7723	-13.5269	0.0000	1.2500	-0.0000	42.3274	-14.3306	-9.5008	46.7833	-21.1913	-13.1783	-0.0000	92.0980	-19.3972	-4.0452	98.3322	-6.2542	7.8387	0.0000	-20.2423	-0.5421	-1.0141	92.2843	-16.4821	47.7787	5.3842	112.5204	-38.5143	-8.4997	87.4226	-17.9880	52.8148	9.7305	115.3952	-23.9835	4.4590	
0.0170	-9.2905	4.5348	-13.8574	0.0000	1.2500	-0.0000	43.1800	-14.2326	-8.8778	50.8493	-19.1740	-13.1949	0.0000	90.0119	-19.1426	-4.8125	94.6713	-6.3232	9.2751	0.0000	-20.3200	-0.4419	-0.9412	92.4003	-16.2408	47.7914	5.1844	112.2882	-38.2839	-8.3363	87.4829	-17.9793	52.8714	9.6151	115.2918	-24.0346	4.4545	
0.0330	-9.1104	4.2982	-14.1870	0.0000	1.2500	-0.0000	44.0334	-14.1222	-8.2614	54.9147	-17.1561	-13.2145	-0.0000	87.9321	-18.8701	-5.5799	90.9686	-6.4110	10.7261	0.0000	-20.3984	-0.3421	-0.8684	92.5159	-15.9993	47.8030	4.9844	112.0561	-38.0534	-8.1716	87.5431	-17.9708	52.9281	9.4990	115.1882	-24.0856	4.4501	
0.0500	-8.9440	4.0185	-14.5432	0.0000	1.2500	-0.0000	45.2629	-14.0531	-7.5068	59.2287	-15.2794	-13.1817	0.0000	85.5109	-18.7636	-6.6007	87.0445	-6.5502	11.9909	0.0000	-20.4811	-0.2381	-0.7698	92.6230	-15.6954	47.7881	4.7922	111.9267	-37.8489	-8.0462	87.5927	-18.0514	52.9910	9.3803	115.0493	-24.1223	4.4307	
0.0670	-8.7958	3.6466	-14.9204	0.0000	1.2500	-0.0000	47.0413	-14.0294	-6.4892	63.9870	-13.5707	-13.0870	0.0000	82.6183	-18.9038	-8.0485	82.8313	-6.7330	12.9794	-0.0000	-20.5780	-0.1142	-0.6354	92.7255	-15.2846	47.7358	4.5941	111.9509	-37.6773	-7.9967	87.6576	-18.2618	53.0694	9.2329	114.8502	-24.1242	4.3949	
0.0830	-8.6597	3.2313	-15.3240	0.0000	1.2500	-0.0000	49.2015	-14.0136	-5.3440	68.9942	-12.0019	-12.9414	-0.0000	79.3699	-19.1546	-9.7907	78.4256	-6.9498	13.7766	0.0000	-20.6795	0.0133	-0.4749	92.8199	-14.8117	47.6563	4.4043	112.0776	-37.5318	-7.9876	87.7115	-18.5612	53.1545	9.0842	114.6168	-24.1121	4.3440	
0.1000	-8.5354	2.8751	-15.7980	0.0000	1.2500	-0.0000	51.6083	-13.9956	-4.3178	73.9157	-10.6336	-12.7180	-0.0000	75.7877	-19.3589	-11.6275	73.9022	-7.2237	14.4380	0.0000	-20.7598	0.1009	-0.2921	92.8867	-14.3474	47.5567	4.2726	112.2548	-37.4187	-7.9524	87.6652	-18.9156	53.2242	9.0127	114.3896	-24.1338	4.2664	
0.1170	-8.4150	2.6124	-16.3874	0.0000	1.2500	-0.0000	54.2336	-13.9631	-3.5085	78.7191	-9.4955	-12.3363	0.0000	71.7975	-19.4560	-13.5662	69.2457	-7.5339	15.0370	0.0000	-20.8070	0.1286	-0.0809	92.8822	-13.8829	47.4215	4.2229	112.4926	-37.3512	-7.8640	87.4494	-19.3391	53.2704	9.0649	114.1664	-24.2155	4.1509	
0.1330	-8.3070	2.4090	-17.0477	0.0000	1.2500	-0.0000	57.1004	-13.9234	-2.8279	83.4319	-8.5574	-11.8747	-0.0000	67.4813	-19.4379	-15.6116	64.4787	-7.8982	15.4916	-0.0000	-20.8323	0.1171	0.1522	92.8495	-13.4270	47.2676	4.2317	112.7813	-37.3160	-7.7493	87.1321	-19.8170	53.2984	9.1941	113.9489	-24.3313	4.0083	
0.1500	-8.2362	2.2639	-17.6903	0.0000	1.2500	-0.0000	60.1481	-13.9118	-2.2329	87.8109	-7.7922	-11.5421	-0.0000	63.1050	-19.2686	-17.5313	59.7316	-8.3991	15.6211	-0.0000	-20.8450	0.0836	0.3848	92.8988	-13.0756	47.1504	4.2775	113.0401	-37.2789	-7.6224	86.8309	-20.2727	53.3073	9.3386	113.7830	-24.4519	3.8596	
0.1670	-8.2277	2.1958	-18.3200	0.0000	1.2500	-0.0000	63.4398	-13.9574	-1.7513	91.8524	-7.2701	-11.4268	0.0000	58.5908	-18.9192	-19.2572	54.8534	-8.9957	15.1277	0.0000	-20.8455	0.0183	0.6224	93.1211	-12.8926	47.0971	4.3641	113.2572	-37.2475	-7.4989	86.5965	-20.6925	53.2768	9.4860	113.7212	-24.5757	3.6985	
0.1830	-8.2587	2.1844	-18.9325	0.0000	1.2500	-0.0000	66.9135	-14.0329	-1.3469	95.5596	-6.9231	-11.4369	0.0000	54.0302	-18.4245	-20.8190	50.0032	-9.7341	14.3074	0.0000	-20.8329	-0.0691	0.8595	93.4256	-12.8130	47.0808	4.4869	113.4440	-37.2142	-7.3632	86.3786	-21.0903	53.2279	9.6486	113.7111	-24.7043	3.5315	
0.2000	-8.2815	2.1700	-19.4248	0.0000	1.2500	-0.0000	70.3250	-14.0925	-0.8651	98.7072	-6.5174	-11.5062	0.0000	49.9253	-17.9322	-22.1307	45.7726	-10.8234	13.8660	-0.0000	-20.8151	-0.1330	1.0565	93.6493	-12.7412	47.0749	4.6123	113.5546	-37.1232	-7.1825	86.1443	-21.4317	53.2227	9.8021	113.6410	-24.8129	3.3994	
0.2170	-8.2726	2.1453	-19.7595	0.0000	1.2500	-0.0000	73.6627	-14.1122	-0.2351	101.2768	-5.9012	-11.6738	-0.0000	46.3800	-17.5637	-23.0790	42.2718	-12.5472	14.1836	0.0000	-20.7857	-0.1658	1.2019	93.6868	-12.6295	47.0882	4.7295	113.5574	-36.9338	-6.9430	85.8517	-21.7139	53.3162	9.9485	113.4322	-24.8854	3.3196	
0.2330	-8.2558	2.1178	-19.9737	0.0000	1.2500	-0.0000	76.9414	-14.1129	0.4911	103.2901	-5.2255	-11.9038	-0.0000	43.2615	-17.3001	-23.7899	39.3871	-14.5877	14.8550	-0.0000	-20.7512	-0.1750	1.3072	93.6435	-12.5267	47.1115	4.8499	113.4840	-36.6875	-6.6589	85.5442	-21.9393	53.4550	10.0860	113.1636	-24.9375	3.2750	
0.2500	-8.2527	2.0519	-20.0769	0.0000	1.2500	-0.0000	79.9587	-14.1250	1.2905	104.5824	-4.7092	-12.0224	-0.0000	40.7086	-17.0980	-24.5519	37.3698	-16.2675	15.4280	0.0000	-20.7393	-0.1370	1.3674	93.6725	-12.4814	47.0903	4.9738	113.3827	-36.4516	-6.3392	85.3171	-22.0813	53.5390	10.1839	112.9607	-24.9927	3.2542	
